<svg id="Layer_1" data-name="Layer 1" xmlns="http://www.w3.org/2000/svg" width="171.738" height="269.359" viewBox="0 0 171.738 269.359">
  <defs>
    <style>
      .cls-1 {
        fill: #fff;
      }

      .cls-2 {
        fill: none;
        stroke: #fff;
        stroke-miterlimit: 10;
      }
    </style>
  </defs>
  <circle id="Ellipse_57" data-name="Ellipse 57" class="cls-1" cx="8.429" cy="8.429" r="8.429" transform="translate(5.087 38.209)"/>
  <circle id="Ellipse_58" data-name="Ellipse 58" class="cls-1" cx="8.429" cy="8.429" r="8.429" transform="translate(55.587)"/>
  <path id="Path_64" data-name="Path 64" class="cls-2" d="M57.857,2.27,7.357,40.479,2.27,76.943,67.623,99.891l42.442-20.386,47.158,55.439L132.2,202.525,42.113,254.771,21.8,173.3s44.113-68.769,44.559-70.032" transform="translate(6.159 6.159)"/>
  <circle id="Ellipse_59" data-name="Ellipse 59" class="cls-1" cx="8.429" cy="8.429" r="8.429" transform="translate(40.957 252.501)"/>
  <circle id="Ellipse_60" data-name="Ellipse 60" class="cls-1" cx="8.429" cy="8.429" r="8.429" transform="translate(129.778 199.884)"/>
  <circle id="Ellipse_61" data-name="Ellipse 61" class="cls-1" cx="8.429" cy="8.429" r="8.429" transform="translate(154.879 130.298)"/>
  <circle id="Ellipse_62" data-name="Ellipse 62" class="cls-1" cx="8.429" cy="8.429" r="8.429" transform="translate(107.796 77.235)"/>
  <circle id="Ellipse_63" data-name="Ellipse 63" class="cls-1" cx="8.429" cy="8.429" r="8.429" transform="translate(19.532 171.44)"/>
  <circle id="Ellipse_64" data-name="Ellipse 64" class="cls-1" cx="8.429" cy="8.429" r="8.429" transform="translate(65.353 97.621)"/>
  <circle id="Ellipse_65" data-name="Ellipse 65" class="cls-1" cx="8.429" cy="8.429" r="8.429" transform="translate(0 73.411)"/>
</svg>
