<svg xmlns="http://www.w3.org/2000/svg" viewBox="0 0 801.76 139.77"><defs><style>.cls-1{fill:none;stroke:#fff;stroke-miterlimit:10;stroke-width:5px;}.cls-2{fill:#fff;}</style></defs><title>LOGO</title><g id="Layer_2" data-name="Layer 2"><g id="Layer_1-2" data-name="Layer 1"><circle class="cls-1" cx="145.45" cy="67.12" r="45.89"/><circle class="cls-1" cx="145.45" cy="67.12" r="64.62"/><circle class="cls-1" cx="145.45" cy="67.12" r="26.75"/><circle class="cls-2" cx="145.45" cy="67.12" r="9.7"/><circle class="cls-2" cx="169.51" cy="28.21" r="12.16"/><circle class="cls-2" cx="123.6" cy="81.72" r="9.51"/><circle class="cls-2" cx="175.91" cy="125.16" r="14.6"/><path class="cls-2" d="M12.92,74a11.21,11.21,0,0,1-9.34-4.67Q0,64.66,0,56.66,0,46.1,6,41.38a10.94,10.94,0,0,1,6.94-2.25H65.21V52.56H15.36q-4.06,0-4.06,4.31t4.06,4.3l39.14.11A11.22,11.22,0,0,1,63.85,66c2.38,3.15,3.58,7.38,3.58,12.72q0,10.76-6,15.27a11.08,11.08,0,0,1-7,2.16H0V82.7l52.07.11c2.7,0,4.06-1.47,4.06-4.41s-1.36-4.31-4.06-4.31Z"/><path class="cls-2" d="M244.6,96.14q-14.19,0-18.24-16a52.38,52.38,0,0,1-1.56-12.92V38.92h13.45V65.48q0,6.66,2.95,10.46A8,8,0,0,0,248,79h38.63V96.14Z"/><path class="cls-2" d="M301.17,52.56V39.13h49.26A14.1,14.1,0,0,1,362,44.46a18.19,18.19,0,0,1,3.62,7.69,49.55,49.55,0,0,1,.66,9.23V96.14h-55a11.26,11.26,0,0,1-9.52-4.62q-3.48-4.6-3.47-12.92t3.5-12.86a11.36,11.36,0,0,1,9.49-4.57H354v-.51q0-6.36-3.4-7.69a9.21,9.21,0,0,0-3.17-.41ZM354,82.7V74H314.53q-3.91,0-3.91,4.41t3.91,4.3Z"/><path class="cls-2" d="M426.49,59.22a7,7,0,0,0-1.33-4.51,3.51,3.51,0,0,0-3-1.23l-30.65-.1V96.14H379.23v-57l45-.21a12.59,12.59,0,0,1,11.08,5.64,20.57,20.57,0,0,1,3.47,11.79V62.3H426.49Z"/><path class="cls-2" d="M461.72,81.88h12.07L502.1,39.13h13.61l-35.66,57H449.39v-57h12.33Z"/><path class="cls-2" d="M536.48,82.7h42.91V96.14H534.86q-9.6,0-14.66-7.54t-5.06-21q0-13.42,5.06-21t14.66-7.53h44.53V52.56H536.48a7,7,0,0,0-5.61,2.67A22.12,22.12,0,0,0,528.21,61l-.07.2h51.25V74H528.14l.07.31c1,2.94,1.87,4.85,2.66,5.74A7,7,0,0,0,536.48,82.7Z"/><path class="cls-2" d="M637.88,59.22a7,7,0,0,0-1.33-4.51,3.51,3.51,0,0,0-2.95-1.23L603,53.38V96.14H590.61v-57l45-.21a12.58,12.58,0,0,1,11.08,5.64,20.49,20.49,0,0,1,3.47,11.79V62.3H637.88Z"/><path class="cls-2" d="M673.7,74a11.2,11.2,0,0,1-9.34-4.67q-3.58-4.66-3.59-12.66,0-10.56,6-15.28a10.93,10.93,0,0,1,6.94-2.25H726V52.56H676.14q-4.07,0-4.07,4.31t4.07,4.3l39.14.11A11.2,11.2,0,0,1,724.62,66c2.39,3.15,3.58,7.38,3.58,12.72q0,10.76-6,15.27a11,11,0,0,1-6.94,2.16H660.77V82.7l52.07.11q4.06,0,4.06-4.41t-4.06-4.31Z"/><path class="cls-2" d="M758.85,82.7h42.91V96.14H757.23q-9.62,0-14.66-7.54t-5.06-21q0-13.42,5.06-21t14.66-7.53h44.53V52.56H758.85a7,7,0,0,0-5.61,2.67A22.12,22.12,0,0,0,750.58,61l-.08.2h51.26V74H750.5l.08.31q1.47,4.41,2.66,5.74A7,7,0,0,0,758.85,82.7Z"/></g></g></svg>