<svg xmlns="http://www.w3.org/2000/svg" viewBox="0 0 56 39"><defs><style>.cls-1{fill:#00ffe6;}.cls-2{fill:#fff;}</style></defs><title>menu_button</title><g id="Layer_2" data-name="Layer 2"><g id="Layer_1-2" data-name="Layer 1"><rect class="cls-1" x="0.5" y="0.5" width="55" height="8.58" rx="4"/><path class="cls-2" d="M51.5,1A3.5,3.5,0,0,1,55,4.5v.58a3.5,3.5,0,0,1-3.5,3.5H4.5A3.5,3.5,0,0,1,1,5.08V4.5A3.5,3.5,0,0,1,4.5,1h47m0-1H4.5A4.49,4.49,0,0,0,0,4.5v.58a4.49,4.49,0,0,0,4.5,4.5h47A4.49,4.49,0,0,0,56,5.08V4.5A4.49,4.49,0,0,0,51.5,0Z"/><rect class="cls-1" x="0.5" y="15.21" width="55" height="8.58" rx="4"/><path class="cls-2" d="M51.5,15.71a3.5,3.5,0,0,1,3.5,3.5v.58a3.5,3.5,0,0,1-3.5,3.5H4.5A3.5,3.5,0,0,1,1,19.79v-.58a3.5,3.5,0,0,1,3.5-3.5h47m0-1H4.5A4.49,4.49,0,0,0,0,19.21v.58a4.49,4.49,0,0,0,4.5,4.5h47a4.49,4.49,0,0,0,4.5-4.5v-.58a4.49,4.49,0,0,0-4.5-4.5Z"/><rect class="cls-1" x="0.5" y="29.92" width="55" height="8.58" rx="4"/><path class="cls-2" d="M51.5,30.42a3.5,3.5,0,0,1,3.5,3.5v.58A3.5,3.5,0,0,1,51.5,38H4.5A3.5,3.5,0,0,1,1,34.5v-.58a3.5,3.5,0,0,1,3.5-3.5h47m0-1H4.5A4.49,4.49,0,0,0,0,33.92v.58A4.49,4.49,0,0,0,4.5,39h47A4.49,4.49,0,0,0,56,34.5v-.58a4.49,4.49,0,0,0-4.5-4.5Z"/></g></g></svg>