<svg id="Layer_1" data-name="Layer 1" xmlns="http://www.w3.org/2000/svg" width="246.453" height="257.8" viewBox="0 0 246.453 257.8">
  <defs>
    <style>
      .cls-1 {
        fill: #fff;
      }

      .cls-2 {
        fill: none;
        stroke: #fff;
        stroke-miterlimit: 10;
      }
    </style>
  </defs>
  <circle id="Ellipse_101" data-name="Ellipse 101" class="cls-1" cx="9.401" cy="9.401" r="9.401" transform="translate(47.253)"/>
  <circle id="Ellipse_102" data-name="Ellipse 102" class="cls-1" cx="9.401" cy="9.401" r="9.401" transform="translate(37.852 60.091)"/>
  <circle id="Ellipse_103" data-name="Ellipse 103" class="cls-1" cx="9.401" cy="9.401" r="9.401" transform="translate(6.792 86.555)"/>
  <circle id="Ellipse_104" data-name="Ellipse 104" class="cls-1" cx="9.401" cy="9.401" r="9.401" transform="translate(0 148.924)"/>
  <circle id="Ellipse_105" data-name="Ellipse 105" class="cls-1" cx="9.401" cy="9.401" r="9.401" transform="translate(99.393 155.26)"/>
  <circle id="Ellipse_106" data-name="Ellipse 106" class="cls-1" cx="9.401" cy="9.401" r="9.401" transform="translate(149.089 118.816)"/>
  <circle id="Ellipse_107" data-name="Ellipse 107" class="cls-1" cx="9.401" cy="9.401" r="9.401" transform="translate(149.089 73.344)"/>
  <circle id="Ellipse_108" data-name="Ellipse 108" class="cls-1" cx="9.401" cy="9.401" r="9.401" transform="translate(181.268 28.865)"/>
  <circle id="Ellipse_109" data-name="Ellipse 109" class="cls-1" cx="9.401" cy="9.401" r="9.401" transform="translate(227.651 2.858)"/>
  <circle id="Ellipse_110" data-name="Ellipse 110" class="cls-1" cx="9.401" cy="9.401" r="9.401" transform="translate(41.165 238.999)"/>
  <path id="Path_71" data-name="Path 71" class="cls-2" d="M229.921,2.96,184.035,28.968,151.359,73.446v45.472l-48.744,37.852L42.98,241.5,2.27,149.026,8.441,87.2,41.075,59.738,50.558,2.96" transform="translate(7.131 9.298)"/>
</svg>
