<svg id="Layer_2" data-name="Layer 2" xmlns="http://www.w3.org/2000/svg" width="52.1" height="52.1" viewBox="0 0 52.1 52.1">
  <g id="Layer_1" data-name="Layer 1" transform="translate(0.5 0.5)">
    <circle id="Ellipse_35" data-name="Ellipse 35" cx="2.694" cy="2.694" r="2.694" transform="translate(8.258 29.001)" fill="#fff"/>
    <circle id="Ellipse_36" data-name="Ellipse 36" cx="25.55" cy="25.55" r="25.55" fill="none" stroke="#fff" stroke-miterlimit="10" stroke-width="1"/>
    <circle id="Ellipse_37" data-name="Ellipse 37" cx="5.036" cy="5.036" r="5.036" transform="translate(20.461 20.532)" fill="none" stroke="#fff" stroke-miterlimit="10" stroke-width="1"/>
    <path id="Path_32" data-name="Path 32" d="M24.048,13.14c2.412,1.9.81,7.977-3.522,13.576S10.595,35.344,8.2,33.443" transform="translate(5.359 9.117)" fill="none" stroke="#fff" stroke-linecap="round" stroke-miterlimit="10" stroke-width="1"/>
    <path id="Path_33" data-name="Path 33" d="M13.31,12.993c1.9-2.412,7.977-.792,13.594,3.61s8.611,9.914,6.726,12.326" transform="translate(9.247 8.155)" fill="none" stroke="#fff" stroke-linecap="round" stroke-miterlimit="10" stroke-width="1"/>
    <path id="Path_34" data-name="Path 34" d="M12.986,25.658c-2.412-1.884-.81-7.977,3.522-13.576s9.931-8.628,12.326-6.726" transform="translate(8.144 2.762)" fill="none" stroke="#fff" stroke-linecap="round" stroke-miterlimit="10" stroke-width="1"/>
    <path id="Path_35" data-name="Path 35" d="M25.656,24.346c-1.9,2.412-7.977.792-13.594-3.522s-8.646-10-6.709-12.414" transform="translate(2.747 5.518)" fill="none" stroke="#fff" stroke-linecap="round" stroke-miterlimit="10" stroke-width="1"/>
    <path id="Path_36" data-name="Path 36" d="M17.81,14.82a2.465,2.465,0,0,1,0,.88" transform="translate(12.67 10.395)" fill="none" stroke="#fff" stroke-linecap="round" stroke-miterlimit="10" stroke-width="1"/>
    <path id="Path_37" data-name="Path 37" d="M19.8,17.1a19.7,19.7,0,0,1-6.9,3.98" transform="translate(8.935 12.13)" fill="none" stroke="#fff" stroke-linecap="round" stroke-miterlimit="10" stroke-width="1" stroke-dasharray="0.7 2.1 0.7 2.1"/>
    <path id="Path_38" data-name="Path 38" d="M17.4,19.69l-.6.158c-5,1.356-9.649,1.25-12.132,0" transform="translate(2.673 14.101)" fill="none" stroke="#fff" stroke-linecap="round" stroke-miterlimit="10" stroke-width="1" stroke-dasharray="0.7 2.1 0.7 2.1 0.7 2.1"/>
    <path id="Path_39" data-name="Path 39" d="M4.03,19.442a2.324,2.324,0,0,1-.37-.792" transform="translate(1.904 13.309)" fill="none" stroke="#fff" stroke-linecap="round" stroke-miterlimit="10" stroke-width="1"/>
    <path id="Path_40" data-name="Path 40" d="M15.07,12.014a2.817,2.817,0,0,1,.863,0" transform="translate(10.586 8.235)" fill="none" stroke="#fff" stroke-linecap="round" stroke-miterlimit="10" stroke-width="1"/>
    <path id="Path_41" data-name="Path 41" d="M17.34,13a19.862,19.862,0,0,1,3.98,6.867" transform="translate(12.313 9.011)" fill="none" stroke="#fff" stroke-linecap="round" stroke-miterlimit="10" stroke-width="1" stroke-dasharray="0.7 2.1 0.7 2.1"/>
    <path id="Path_42" data-name="Path 42" d="M19.93,17.91a2.439,2.439,0,0,0,.176.581c1.356,5,1.25,9.649,0,12.132" transform="translate(14.283 12.746)" fill="none" stroke="#fff" stroke-linecap="round" stroke-miterlimit="10" stroke-width="1" stroke-dasharray="0.7 2.1 0.7 2.1 0.7 2.1"/>
    <path id="Path_43" data-name="Path 43" d="M19.692,25.93a2.765,2.765,0,0,1-.792.387" transform="translate(13.5 18.849)" fill="none" stroke="#fff" stroke-linecap="round" stroke-miterlimit="10" stroke-width="1"/>
    <path id="Path_44" data-name="Path 44" d="M11.954,15.2a2.941,2.941,0,0,1,0-.88" transform="translate(8.19 10.015)" fill="none" stroke="#fff" stroke-linecap="round" stroke-miterlimit="10" stroke-width="1"/>
    <path id="Path_45" data-name="Path 45" d="M12.93,14.26a19.7,19.7,0,0,1,6.9-3.98" transform="translate(8.957 6.941)" fill="none" stroke="#fff" stroke-linecap="round" stroke-miterlimit="10" stroke-width="1" stroke-dasharray="0.7 2.1 0.7 2.1"/>
    <path id="Path_46" data-name="Path 46" d="M17.85,10.5l.6-.176c5-1.338,9.649-1.25,12.132,0" transform="translate(12.701 6.232)" fill="none" stroke="#fff" stroke-linecap="round" stroke-miterlimit="10" stroke-width="1" stroke-dasharray="0.7 2.1 0.7 2.1 0.7 2.1"/>
    <path id="Path_47" data-name="Path 47" d="M25.88,10.54a2.183,2.183,0,0,1,.37.792" transform="translate(18.81 7.139)" fill="none" stroke="#fff" stroke-linecap="round" stroke-miterlimit="10" stroke-width="1"/>
    <path id="Path_48" data-name="Path 48" d="M15.133,17.94a2.36,2.36,0,0,1-.863,0" transform="translate(9.977 12.769)" fill="none" stroke="#fff" stroke-linecap="round" stroke-miterlimit="10" stroke-width="1"/>
    <path id="Path_49" data-name="Path 49" d="M14.21,20.043A19.7,19.7,0,0,1,10.23,13" transform="translate(6.903 9.011)" fill="none" stroke="#fff" stroke-linecap="round" stroke-miterlimit="10" stroke-width="1" stroke-dasharray="0.7 2.1 0.7 2.1"/>
    <path id="Path_50" data-name="Path 50" d="M10.406,17.478l-.176-.6c-1.409-4.948-1.25-9.6.035-12.079" transform="translate(6.146 2.772)" fill="none" stroke="#fff" stroke-linecap="round" stroke-miterlimit="10" stroke-width="1" stroke-dasharray="0.7 2.1 0.7 2.1 0.7 2.1"/>
    <path id="Path_51" data-name="Path 51" d="M10.48,4.16a2.324,2.324,0,0,1,.792-.37" transform="translate(7.093 2.003)" fill="none" stroke="#fff" stroke-linecap="round" stroke-miterlimit="10" stroke-width="1"/>
    <path id="Path_52" data-name="Path 52" d="M12.108,20.828A5.388,5.388,0,0,1,6.72,15.44" transform="translate(4.233 10.867)" fill="none" stroke="#fff" stroke-linecap="round" stroke-miterlimit="10" stroke-width="1"/>
    <path id="Path_53" data-name="Path 53" d="M3.66,18.5a5.388,5.388,0,0,1,5.388,5.388" transform="translate(1.904 13.195)" fill="none" stroke="#fff" stroke-linecap="round" stroke-miterlimit="10" stroke-width="1"/>
    <path id="Path_54" data-name="Path 54" d="M6.72,23.888A5.388,5.388,0,0,1,12.108,18.5" transform="translate(4.233 13.195)" fill="none" stroke="#fff" stroke-linecap="round" stroke-miterlimit="10" stroke-width="1"/>
    <path id="Path_55" data-name="Path 55" d="M9.048,15.44A5.388,5.388,0,0,1,3.66,20.828" transform="translate(1.904 10.867)" fill="none" stroke="#fff" stroke-linecap="round" stroke-miterlimit="10" stroke-width="1"/>
    <path id="Path_56" data-name="Path 56" d="M28.668,13.448A5.388,5.388,0,0,1,23.28,8.06" transform="translate(16.832 5.252)" fill="none" stroke="#fff" stroke-linecap="round" stroke-miterlimit="10" stroke-width="1"/>
    <path id="Path_57" data-name="Path 57" d="M20.22,11.12a5.388,5.388,0,0,1,5.388,5.388" transform="translate(14.504 7.58)" fill="none" stroke="#fff" stroke-linecap="round" stroke-miterlimit="10" stroke-width="1"/>
    <path id="Path_58" data-name="Path 58" d="M23.28,16.508a5.388,5.388,0,0,1,5.388-5.388" transform="translate(16.832 7.58)" fill="none" stroke="#fff" stroke-linecap="round" stroke-miterlimit="10" stroke-width="1"/>
    <path id="Path_59" data-name="Path 59" d="M25.608,8.06a5.388,5.388,0,0,1-5.388,5.388" transform="translate(14.504 5.252)" fill="none" stroke="#fff" stroke-linecap="round" stroke-miterlimit="10" stroke-width="1"/>
    <circle id="Ellipse_38" data-name="Ellipse 38" cx="2.694" cy="2.694" r="2.694" transform="translate(37.418 16.006)" fill="#fff"/>
    <circle id="Ellipse_39" data-name="Ellipse 39" cx="5.054" cy="5.054" r="5.054" transform="translate(20.444 20.496)" fill="#fff"/>
  </g>
</svg>
