<svg id="Layer_1" data-name="Layer 1" xmlns="http://www.w3.org/2000/svg" viewBox="0 0 591.85 591.85"><defs><style>.cls-1{fill:#fabc5f;}.cls-2{fill:#f5ae45;}.cls-3{fill:#f09e26;}</style></defs><title>SOL</title><g id="surface1"><path class="cls-1" d="M296.08,591.84a295.58,295.58,0,0,1-82.44-11.63l5.5-18.94a279.93,279.93,0,0,0,117.1,8l2.83,19.51A298.76,298.76,0,0,1,296.08,591.84Zm84.22-12.15-5.61-18.92A273.74,273.74,0,0,0,477.5,504.18l13,14.88A293.3,293.3,0,0,1,380.3,579.69ZM174,565.57a298.93,298.93,0,0,1-100.87-75l14.85-13a278.94,278.94,0,0,0,94.18,70Zm346.23-76.43-15-12.89a273.69,273.69,0,0,0,56.05-103.11l18.94,5.51a293.42,293.42,0,0,1-60,110.49ZM47.76,456.86A292.4,292.4,0,0,1,3.31,339.22l19.54-2.86A272.88,272.88,0,0,0,64.27,446.12ZM589.12,337.35l-19.53-2.73a281.62,281.62,0,0,0,2.68-38.7A276.32,276.32,0,0,0,561,217.58L579.93,212A296.56,296.56,0,0,1,592,295.92,302.24,302.24,0,0,1,589.12,337.35ZM19.88,297.11H.16v-1.19A293.54,293.54,0,0,1,26.79,173l17.94,8.21A274.27,274.27,0,0,0,19.88,295.92Zm527.28-116.4a278.92,278.92,0,0,0-70.52-93.78L489.54,72a298.54,298.54,0,0,1,75.55,100.48ZM63.65,146.65,47.06,136A299.29,299.29,0,0,1,135.92,47l10.7,16.58A279.42,279.42,0,0,0,63.65,146.65ZM445.09,63.33a272.71,272.71,0,0,0-110-40.88l2.75-19.53A292.67,292.67,0,0,1,455.75,46.71ZM181.14,44.7l-8.22-17.93A293.46,293.46,0,0,1,295.76,0V19.73A273.67,273.67,0,0,0,181.14,44.7Z" transform="translate(-0.15 0)"/><path class="cls-2" d="M300.49,532.66l-.37-19.73a216.75,216.75,0,0,0,107.52-30.81L417.8,499A236.56,236.56,0,0,1,300.49,532.66Zm-41-2.76a236.27,236.27,0,0,1-111.68-49.42l12.37-15.38a216.53,216.53,0,0,0,102.36,45.25Zm191.62-55L438.18,460a217.54,217.54,0,0,0,62.88-92.59l18.64,6.49a237.48,237.48,0,0,1-68.59,101Zm-333-22.83A236.57,236.57,0,0,1,64,342.63l19.34-3.87A216.72,216.72,0,0,0,133,439ZM529.77,334l-19.47-3.14a220.49,220.49,0,0,0,2.79-34.9,216.35,216.35,0,0,0-13.81-76.47l18.45-6.91a235.8,235.8,0,0,1,15.09,83.38A238.69,238.69,0,0,1,529.77,334ZM59.41,301.84c0-2-.07-3.95-.07-5.92A236.78,236.78,0,0,1,90.78,178l17.09,9.86a217.07,217.07,0,0,0-28.8,108.1c0,1.79,0,3.58.07,5.38ZM482.92,185.49A218,218,0,0,0,403,107.07l9.75-17.16a238,238,0,0,1,87.1,85.52Zm-353.47-28.6-15.14-12.66A237.65,237.65,0,0,1,214,73.79l6.84,18.52A217.61,217.61,0,0,0,129.45,156.89Zm239.33-65.5a219,219,0,0,0-111.57-9L253.66,63a239,239,0,0,1,121.72,9.87Z" transform="translate(-0.15 0)"/><path class="cls-3" d="M463.76,295.92A167.69,167.69,0,1,1,296.08,128.23,167.68,167.68,0,0,1,463.76,295.92Z" transform="translate(-0.15 0)"/></g></svg>